<svg width="16" height="16" viewBox="0 0 16 16" fill="none" xmlns="http://www.w3.org/2000/svg">
    <path d="M1.47504 7.34551C1.7707 7.05557 2.24555 7.06032 2.53559 7.35614L4.54853 9.40996L9.37495 3.52445C9.63764 3.20416 10.1103 3.15743 10.4304 3.42008C10.7507 3.68273 10.7976 4.1553 10.5349 4.47559L5.17817 11.0077C4.89521 11.3529 4.37519 11.3759 4.06269 11.0571L1.4643 8.40611C1.17451 8.1103 1.17915 7.63545 1.47504 7.34551Z" fill="black"/>
    <path d="M6.99995 10L7.99995 9.00002L8.49995 9.50002L13.3749 3.52445C13.6376 3.20416 14.1103 3.15743 14.4304 3.42008C14.7507 3.68273 14.7976 4.1553 14.5349 4.47559L9.17817 11.0077C8.92207 11.3203 8.46406 11.3735 8.14277 11.128L6.99995 10Z" fill="black"/>
</svg>
