<svg version="1.1" id="Layer_1" xmlns="http://www.w3.org/2000/svg" x="0" y="0" width="400" height="2063" style="enable-background:new 0 0 400 2063" xml:space="preserve"><style>.st0,.st1{fill:none;stroke-linecap:round}.st0{stroke:#e8ebef;stroke-width:.5;stroke-miterlimit:10}.st1{stroke:#ccd6e5;stroke-width:2}.st1,.st2,.st3{stroke-miterlimit:10}.st2{fill:#fff;stroke:#ccd6e5;stroke-width:2}.st3{fill:#f2f6f9;stroke:#dce3ea;stroke-linecap:round;stroke-dasharray:3,0,0,0,0,3}.st5{fill:#f0f4f8}.st6,.st7{stroke:#ccd6e5;stroke-width:2;stroke-linecap:round;stroke-miterlimit:10}.st6{fill:none;stroke-linejoin:round}.st7{fill:#fff}.st8{fill:#e5e8f0}.st9{fill:#fff}.st11{fill:#f2f6f9}.st13{fill:#c1c1c1}.st14{fill:#a0a0a0}.st16,.st17,.st18{fill:#fff;stroke:#ccd6e5;stroke-width:1.5;stroke-miterlimit:10}.st17,.st18{stroke-width:2.0077}.st18{stroke-width:1.5191}.st19{fill:#eff3f7}.st21{fill:#ccd6e4}.st22,.st23,.st24{stroke-miterlimit:10}.st22{fill:none;stroke:#bfc9d6;stroke-width:.5;stroke-linecap:round}.st23,.st24{stroke-width:2}.st23{fill:#fff;stroke:#ccd6e4}.st24{fill:none;stroke-linecap:round}.st24,.st25,.st26{stroke:#ccd6e4}.st25{fill:none;stroke-width:.5;stroke-linecap:round;stroke-miterlimit:10}.st26{fill:#eff3f7;stroke-dasharray:3,0,0,0,0,4}.st26,.st28,.st31{stroke-linecap:round;stroke-linejoin:round;stroke-miterlimit:10}.st28{fill:#eff3f7;stroke:#ccd6e4;stroke-dasharray:3,0,0,0,0,3}.st31{fill:none;stroke:#e7eaed}.st32{fill:none;stroke:#ccd6e4;stroke-width:2}.st36{fill:#f4f7f9}.st38,.st41{stroke-linecap:round;stroke-miterlimit:10}.st38{fill:#fdfeff;stroke:#dce3ea;stroke-dasharray:3,0,0,0,0,3}.st41{fill:#f0f4f8;stroke:#e8ebef;stroke-width:.5}.st42{fill:#ccd6e5}</style><path class="st0" d="M43.5 40.5h113M43.5 60.5h113M43.5 80.5h113"/><path class="st1" d="M35 100h127"/><path class="st2" d="M62 99V64c0-1.7 1.3-3 3-3h13c1.7 0 3 1.3 3 3v35"/><path class="st3" d="M99.5 98.5v-57c0-1.7 1.3-3 3-3h13c1.7 0 3 1.3 3 3v57"/><path class="st2" d="M94 99V46c0-1.7 1.3-3 3-3h13c1.7 0 3 1.3 3 3v53M125 99V75c0-1.7 1.3-3 3-3h13c1.7 0 3 1.3 3 3v24"/><path class="st0" d="M311.5 22.5v95M273.5 22.5v95M235.5 22.5v95"/><path class="st2" d="M209 28h66.7c1.8 0 3.3 2 3.3 4.4v10.2c0 2.4-1.5 4.4-3.3 4.4H209"/><path class="st3" d="M210.5 53.5h101c1.1 0 2 .9 2 2v15c0 1.1-.9 2-2 2h-101"/><path class="st2" d="M209 59h96.7c1.8 0 3.3 0 3.3 2.4v14.2c0 2.4-1.5 2.4-3.3 2.4H209M209 90h46.7c1.8 0 3.3 2 3.3 4.4v10.2c0 2.4-1.5 4.4-3.3 4.4H209"/><path class="st1" d="M209 20v100"/><path class="st0" d="M45.5 170.5h113M45.5 196.5h113M45.5 220.5h113"/><path d="M50.4 216.1s12.8-2.2 24.9-18.6 27-27.6 37.9-17.2 16.7 20.2 25.6 15.9 12.9-16.7 15.4-18.3" style="fill:none;stroke:#ccd6e5;stroke-linecap:round;stroke-miterlimit:10;stroke-dasharray:3,0,0,0,0,4"/><circle class="st5" cx="52.5" cy="215.5" r="3.5"/><circle class="st6" cx="52.5" cy="215.5" r="3.5"/><circle class="st5" cx="154.5" cy="176.5" r="3.5"/><circle class="st6" cx="154.5" cy="176.5" r="3.5"/><circle class="st5" cx="104.5" cy="176.5" r="3.5"/><circle class="st6" cx="104.5" cy="176.5" r="3.5"/><path class="st6" d="M49.3 193.8s20.8-8.8 39 9.4 55.2 26.7 66.7 11.5"/><circle class="st5" cx="154.5" cy="214.5" r="3.5"/><circle class="st6" cx="154.5" cy="214.5" r="3.5"/><circle class="st5" cx="111.5" cy="216.5" r="3.5"/><circle class="st6" cx="111.5" cy="216.5" r="3.5"/><circle class="st5" cx="52.5" cy="193.5" r="3.5"/><circle class="st6" cx="52.5" cy="193.5" r="3.5"/><path class="st6" d="M33 149v90h130"/><path class="st7" d="M260 257.2c-27.8 0-50.4-22.6-50.4-50.4s22.6-50.4 50.4-50.4v22.8c-15.2 0-27.6 12.4-27.6 27.6s12.4 27.6 27.6 27.6"/><path class="st3" d="M267.6 172.6c9.4-.4 18 3.9 23.3 10.9l19.2-12.4c-9.6-13.6-25.7-22.2-43.6-21.3l-.1 23.3 1.2-.5z"/><path class="st7" d="M314.4 206.8c0 27.8-22.6 50.4-50.4 50.4v-22.8c15.2 0 27.6-12.4 27.6-27.6 0-5.8-1.8-11.2-4.8-15.6l19.8-11.5c4.9 7.9 7.8 17.2 7.8 27.1zM85.2 334.2l18-52.3c-26.1-9.1-55.5 2.8-67.5 28.4-11.5 24.4-3.4 53 17.8 68l3.3 2.1s3.6 2.4 6.3 3.4"/><path class="st7" d="m85.2 334.2 54.7 4.7c-.6 6.2-2.2 12.3-5 18.3-12.9 27.4-45.5 39.1-72.9 26.2"/><path class="st3" d="m143.1 333.2-51.5-4.3 18.9-51.9c21.3 10.1 34.5 34 32.6 56.2z"/><path class="st2" d="M329.7 370H212.3c-3.5 0-6.3-2.8-6.3-6.3v-67.3c0-3.5 2.8-6.3 6.3-6.3h117.3c3.5 0 6.3 2.8 6.3 6.3v67.3c.1 3.5-2.7 6.3-6.2 6.3z"/><path class="st5" d="M208 300h125v13H208z"/><path class="st8" d="M218 324h20.4c.9-.3 1.7.5 1.6 1.4.1.9-.6 1.7-1.6 1.6H218c-.9.1-1.7-.7-2-1.6.3-.9 1.1-1.7 2-1.4zM219 340h29.5c.9-.2 1.6.5 1.5 1.4.1.9-.6 1.7-1.5 1.6H219c-.9.1-1.6-.6-2-1.6.4-.9 1.1-1.6 2-1.4zM219 355h19.5c.9-.2 1.6.5 1.5 1.4.1.9-.6 1.7-1.5 1.6H219c-.9.1-1.6-.6-2-1.6.4-.9 1.1-1.6 2-1.4zM313.4 324H327c.6-.3 1.1.5 1.1 1.4.1.9-.4 1.7-1.1 1.6h-13.6c-.6.1-1.1-.7-1.4-1.6.2-.9.7-1.7 1.4-1.4zM307.3 340h18.8c.6-.2 1 .5.9 1.4.1.9-.4 1.7-.9 1.6h-18.8c-.6.1-1-.6-1.3-1.6.2-.9.7-1.6 1.3-1.4zM314.3 355H327c.6-.2 1 .5 1 1.4.1.9-.4 1.7-1 1.6h-12.7c-.6.1-1-.6-1.3-1.6.3-.9.7-1.6 1.3-1.4z"/><path class="st9" d="M242.2 309h-23.5c-1 0-1.8-.8-1.8-1.8v-.5c0-1 .8-1.8 1.8-1.8h23.5c1 0 1.8.8 1.8 1.8v.5c0 1-.8 1.8-1.8 1.8zM325.2 309h-23.5c-1 0-1.8-.8-1.8-1.8v-.5c0-1 .8-1.8 1.8-1.8h23.5c1 0 1.8.8 1.8 1.8v.5c0 1-.8 1.8-1.8 1.8z"/><path d="m115 486.3 36.8-55.3H36.7C47.9 446.7 77 486.3 77 486.3V508h38v-21.7z" style="fill:#fff;stroke:#ccd6e5;stroke-width:2;stroke-linecap:round;stroke-linejoin:round;stroke-miterlimit:10"/><path class="st3" d="M58.5 460.5h72.4l-12.1 17.8-2.6 4.2H75.5"/><path class="st6" d="M32 509h131M49 446h92M77 497h35"/><path class="st11" d="m324.6 506.9-70.4-1c-4.1-.1-7.4-3.5-7.4-7.6l1.2-79c.1-4.1 3.5-7.4 7.6-7.4l70.4 1c4.1.1 7.4 3.5 7.4 7.6l-1.2 79c-.1 4.2-3.5 7.5-7.6 7.4z"/><path d="m324.6 506.9-70.4-1c-4.1-.1-7.4-3.5-7.4-7.6l1.2-79c.1-4.1 3.5-7.4 7.6-7.4l70.4 1c4.1.1 7.4 3.5 7.4 7.6l-1.2 79c-.1 4.2-3.5 7.5-7.6 7.4z" style="fill:none;stroke:#dce3ea;stroke-linecap:round;stroke-miterlimit:10;stroke-dasharray:2.9815,0,0,0,0,2.9815"/><path class="st9" d="M289.8 442h31.4c.8.3 1.4 1 1.4 1.8s-.7 1.4-1.5 1.2h-31.4c-.8-.2-1.4-.9-1.4-1.7.1-.8.7-1.4 1.5-1.3z"/><path class="st13" d="m267.9 441 14.3.2c1 0 1.8.9 1.8 1.9v.1c0 1-.9 1.8-1.9 1.8l-14.3-.2c-1 0-1.8-.9-1.8-1.9v-.1c0-1 .9-1.8 1.9-1.8z"/><circle class="st14" cx="258" cy="442" r="4"/><path class="st9" d="M289 459h31.4c.8.4 1.4 1 1.4 1.8s-.7 1.4-1.5 1.2H289c-.8-.2-1.4-.8-1.4-1.6 0-.9.6-1.5 1.4-1.4z"/><path class="st13" d="m266.9 457 14.3.2c1 0 1.8.9 1.8 1.9v.1c0 1-.9 1.8-1.9 1.8l-14.3-.2c-1 0-1.8-.9-1.8-1.9v-.1c0-1 .9-1.8 1.9-1.8z"/><circle class="st14" cx="257" cy="459" r="4"/><path class="st9" d="M289 475h31.4c.8.8 1.4 1.4 1.4 2.2 0 .8-.7 1.4-1.5.8H289c-.8.2-1.4-.5-1.4-1.3s.6-1.4 1.4-1.7z"/><path class="st13" d="m266.9 474 14.3.2c1 0 1.8.9 1.8 1.9v.1c0 1-.9 1.8-1.9 1.8l-14.3-.2c-1 0-1.8-.9-1.8-1.9v-.1c0-1 .9-1.8 1.9-1.8z"/><circle class="st14" cx="257" cy="477" r="4"/><path class="st9" d="M289 492h31.4c.8.1 1.4.8 1.4 1.6s-.7 1.4-1.5 1.4H289c-.8-.4-1.4-1.1-1.4-1.9 0-.8.6-1.4 1.4-1.1z"/><path class="st13" d="m266.9 491 14.3.2c1 0 1.8.9 1.8 1.9v.1c0 1-.9 1.8-1.9 1.8l-14.3-.2c-1 0-1.8-.9-1.8-1.9v-.1c0-1 .9-1.8 1.9-1.8z"/><circle class="st14" cx="257" cy="492" r="4"/><path d="m286.6 430.3-31.3-.5c-1.4 0-2.5-1.2-2.5-2.6v-.8c0-1.4 1.2-2.5 2.6-2.5l31.3.5c1.4 0 2.5 1.2 2.5 2.6v.8c0 1.4-1.2 2.5-2.6 2.5z" style="fill:#efefef;stroke:#000;stroke-miterlimit:10;stroke-dasharray:125,19,0,0,89,1"/><path class="st9" d="m308 501.4-72.1 15.9c-4.2.9-8.4-1.7-9.3-6l-17.8-80.9c-.9-4.2 1.7-8.4 6-9.3l72.1-15.9c4.2-.9 8.4 1.7 9.3 6l17.8 80.9c.9 4.2-1.8 8.4-6 9.3z"/><path class="st2" d="m302.5 497.2-68.8 15.2c-4 .9-8-1.7-8.9-5.7l-17-77.2c-.9-4 1.7-8 5.7-8.9l68.8-15.2c4-.9 8 1.7 8.9 5.7l17 77.2c.9 4.1-1.6 8-5.7 8.9z"/><path class="st8" d="m256.5 445.5 29.9-6.6c.8-.2 1.6.3 1.8 1.1.2.8-.3 1.6-1.1 1.8l-29.9 6.6c-.8.2-1.6-.3-1.8-1.1-.2-.9.3-1.7 1.1-1.8zM234.8 449.5l13-2.9c1-.2 2 .4 2.2 1.4.2 1-.4 2-1.4 2.2l-13 2.9c-1 .2-2-.4-2.2-1.4-.2-1 .4-2 1.4-2.2z"/><circle class="st8" cx="225" cy="454" r="4"/><path class="st8" d="m260.5 460.5 29.9-6.6c.8-.2 1.6.3 1.8 1.1.2.8-.3 1.6-1.1 1.8l-29.9 6.6c-.8.2-1.6-.3-1.8-1.1-.2-.9.3-1.6 1.1-1.8zM238.8 464.5l13-2.9c1-.2 2 .4 2.2 1.4.2 1-.4 2-1.4 2.2l-13 2.9c-1 .2-2-.4-2.2-1.4-.2-1 .4-2 1.4-2.2z"/><circle class="st8" cx="229" cy="470" r="4"/><path class="st8" d="m264.2 476.3 29.9-6.6c.8-.2 1.6.3 1.8 1.1.2.8-.3 1.6-1.1 1.8l-29.9 6.6c-.8.2-1.6-.3-1.8-1.1-.2-.8.3-1.6 1.1-1.8zM242.5 480.3l13-2.9c1-.2 2 .4 2.2 1.4.2 1-.4 2-1.4 2.2l-13 2.9c-1 .2-2-.4-2.2-1.4-.3-1 .4-2 1.4-2.2z"/><circle class="st8" cx="233" cy="484" r="4"/><path class="st8" d="m267.6 492.3 29.9-6.6c.8-.2 1.6.3 1.8 1.1.2.8-.3 1.6-1.1 1.8l-29.9 6.6c-.8.2-1.6-.3-1.8-1.1-.2-.8.3-1.6 1.1-1.8zM245.9 496.3l13-2.9c1-.2 2 .4 2.2 1.4.2 1-.4 2-1.4 2.2l-13 2.9c-1 .2-2-.4-2.2-1.4-.2-1 .4-2 1.4-2.2z"/><circle class="st8" cx="237" cy="501" r="4"/><path class="st8" d="m253.4 432.4-31.6 7.1c-1.4.3-2.8-.6-3.1-1.9l-.2-1c-.3-1.4.6-2.8 1.9-3.1l31.6-7.1c1.4-.3 2.8.6 3.1 1.9l.2 1c.4 1.4-.5 2.8-1.9 3.1z"/><path class="st16" d="m252 430.8-31.6 7.1c-1.4.3-2.8-.6-3.1-2l-.2-.7c-.3-1.4.6-2.8 2-3.1l31.6-7.1c1.4-.3 2.8.6 3.1 2l.2.7c.3 1.4-.6 2.7-2 3.1z"/><path class="st3" d="M151.8 636.5H39.2c-3.7 0-6.7-3-6.7-6.7v-72.5c0-3.7 3-6.7 6.7-6.7h112.5c3.7 0 6.7 3 6.7 6.7v72.5c.1 3.7-2.9 6.7-6.6 6.7z"/><path class="st9" d="M161.5 642h-116c-3.6 0-6.5-2.9-6.5-6.5v-72.9c0-3.6 2.9-6.5 6.5-6.5h115.9c3.6 0 6.5 2.9 6.5 6.5v72.9c.1 3.6-2.8 6.5-6.4 6.5z"/><path class="st17" d="M166.5 647h-116c-3.6 0-6.5-2.9-6.5-6.5v-72.9c0-3.6 2.9-6.5 6.5-6.5h115.9c3.6 0 6.5 2.9 6.5 6.5v72.9c.1 3.6-2.8 6.5-6.4 6.5z"/><path class="st5" d="M45 587h127v19H45z"/><path class="st8" d="M79.6 617h13.1c.3.1.6.6.2 1.2.4.6.1 1.1-.2.8H79.6c-.3.3-.6-.2-1.6-.8 1-.6 1.3-1.1 1.6-1.2zM51.2 617h10c.8-.4 1.4.2.8 1 .6.8-.1 1.4-.8 1h-10c-.8.3-1.4-.3-2.2-1 .8-.8 1.4-1.4 2.2-1zM80.8 632h11.1c.3-.3.5.2.1.8.4.6.2 1.1-.1 1.2H80.8c-.3-.1-.5-.6-.8-1.2.2-.6.5-1.1.8-.8zM52.7 632H62c.7-.8 1.3-.2.9.5.4.8-.2 1.4-.9 1.5h-9.3c-.7-.1-1.3-.7-1.7-1.5.4-.7 1-1.3 1.7-.5zM111.1 617H122c.3.1.5.6 0 1.2.5.6.2 1.1 0 .8h-10.8c-.3.3-.5-.2-1.1-.8.5-.6.7-1.1 1-1.2zM110.1 632h13.1c.3-.3.6.2.8.8-.1.6-.4 1.1-.8 1.2h-13.1c-.3-.1-.6-.6-1.1-1.2.5-.6.8-1.1 1.1-.8zM144.9 617H158c.3.1.6.6 1 1.2-.3.6-.6 1.1-1 .8h-13.1c-.3.3-.6-.2-.9-.8.3-.6.5-1.1.9-1.2zM146.2 632h11.3c.3-.3.5.2.5.8 0 .6-.2 1.1-.5 1.2h-11.3c-.3-.1-.5-.6-.2-1.2-.3-.6-.1-1.1.2-.8zM91.8 579H55.2c-1.2 0-2.2-1-2.2-2.2v-.6c0-1.2 1-2.2 2.2-2.2h36.6c1.2 0 2.2 1 2.2 2.2v.6c0 1.2-1 2.2-2.2 2.2z"/><path class="st18" d="M90.8 577H54.2c-1.2 0-2.2-1-2.2-2.2v-.6c0-1.2 1-2.2 2.2-2.2h36.6c1.2 0 2.2 1 2.2 2.2v.6c0 1.2-1 2.2-2.2 2.2z"/><path class="st9" d="M94.6 603H75.4c-.8 0-1.4-.6-1.4-1.4v-.3c0-.8.6-1.4 1.4-1.4h19.3c.8 0 1.4.6 1.4 1.4v.3c-.1.8-.7 1.4-1.5 1.4zM125.6 603h-19.3c-.8 0-1.4-.6-1.4-1.4v-.3c0-.8.6-1.4 1.4-1.4h19.3c.8 0 1.4.6 1.4 1.4v.3c0 .8-.6 1.4-1.4 1.4zM160.6 603h-19.3c-.8 0-1.4-.6-1.4-1.4v-.3c0-.8.6-1.4 1.4-1.4h19.3c.8 0 1.4.6 1.4 1.4v.3c0 .8-.6 1.4-1.4 1.4z"/><circle class="st9" cx="84" cy="593" r="4"/><circle class="st9" cx="116" cy="593" r="4"/><circle class="st9" cx="152" cy="593" r="4"/><path class="st3" d="M324.8 636.5H212.2c-3.7 0-6.7-3-6.7-6.7v-72.5c0-3.7 3-6.7 6.7-6.7h112.5c3.7 0 6.7 3 6.7 6.7v72.5c.1 3.7-2.9 6.7-6.6 6.7z"/><path class="st9" d="M334.5 642h-116c-3.6 0-6.5-2.9-6.5-6.5v-72.9c0-3.6 2.9-6.5 6.5-6.5h115.9c3.6 0 6.5 2.9 6.5 6.5v72.9c.1 3.6-2.8 6.5-6.4 6.5z"/><path class="st2" d="M338.5 647h-116c-3.6 0-6.5-2.9-6.5-6.5v-72.9c0-3.6 2.9-6.5 6.5-6.5h115.9c3.6 0 6.5 2.9 6.5 6.5v72.9c.1 3.6-2.8 6.5-6.4 6.5z"/><path class="st5" d="M217 584h127v11H217z"/><path class="st8" d="M223.8 611h10c.8-.6 1.4 0 1.2.7.2.8-.4 1.4-1.2 1.3h-10c-.8.1-1.4-.5-1.8-1.3.5-.7 1.1-1.3 1.8-.7zM225.4 631h9.3c.7-.1 1.3.5 1.2 1.3.1.8-.5 1.4-1.2.7h-9.3c-.7.7-1.3 0-1.4-.7.1-.8.7-1.4 1.4-1.3zM264.8 578h-36.6c-1.2 0-2.2-1-2.2-2.2v-.6c0-1.2 1-2.2 2.2-2.2h36.6c1.2 0 2.2 1 2.2 2.2v.6c0 1.2-1 2.2-2.2 2.2z"/><path class="st16" d="M263.8 577h-36.6c-1.2 0-2.2-1-2.2-2.2v-.6c0-1.2 1-2.2 2.2-2.2h36.6c1.2 0 2.2 1 2.2 2.2v.6c0 1.2-1 2.2-2.2 2.2z"/><path class="st9" d="M266.6 592h-19.3c-.8 0-1.4-.6-1.4-1.4v-.3c0-.8.6-1.4 1.4-1.4h19.3c.8 0 1.4.6 1.4 1.4v.3c0 .8-.6 1.4-1.4 1.4zM298.6 592h-19.3c-.8 0-1.4-.6-1.4-1.4v-.3c0-.8.6-1.4 1.4-1.4h19.3c.8 0 1.4.6 1.4 1.4v.3c0 .8-.6 1.4-1.4 1.4zM333.6 592h-19.3c-.8 0-1.4-.6-1.4-1.4v-.3c0-.8.6-1.4 1.4-1.4h19.3c.8 0 1.4.6 1.4 1.4v.3c0 .8-.6 1.4-1.4 1.4z"/><path class="st5" d="M268.5 616h-21.9c-.8 0-1.5-.7-1.5-1.5v-9.9c0-.8.7-1.5 1.5-1.5h21.9c.8 0 1.5.7 1.5 1.5v9.9c0 .8-.7 1.5-1.5 1.5zM268.5 637h-21.9c-.8 0-1.5-.7-1.5-1.5v-9.9c0-.8.7-1.5 1.5-1.5h21.9c.8 0 1.5.7 1.5 1.5v9.9c0 .8-.7 1.5-1.5 1.5zM299.5 616h-21.9c-.8 0-1.5-.7-1.5-1.5v-9.9c0-.8.7-1.5 1.5-1.5h21.9c.8 0 1.5.7 1.5 1.5v9.9c0 .8-.7 1.5-1.5 1.5zM299.5 637h-21.9c-.8 0-1.5-.7-1.5-1.5v-9.9c0-.8.7-1.5 1.5-1.5h21.9c.8 0 1.5.7 1.5 1.5v9.9c0 .8-.7 1.5-1.5 1.5zM331.5 616h-21.9c-.8 0-1.5-.7-1.5-1.5v-9.9c0-.8.7-1.5 1.5-1.5h21.9c.8 0 1.5.7 1.5 1.5v9.9c0 .8-.7 1.5-1.5 1.5zM331.5 637h-21.9c-.8 0-1.5-.7-1.5-1.5v-9.9c0-.8.7-1.5 1.5-1.5h21.9c.8 0 1.5.7 1.5 1.5v9.9c0 .8-.7 1.5-1.5 1.5z"/><path class="st9" d="M246 607h23v8h-23zM277 610h23v5h-23zM309 607h23v8h-23zM246 628h23v8h-23zM277 631h23v5h-23zM309 628h23v8h-23z"/><path class="st3" d="M150.8 772.5H38.2c-3.7 0-6.7-3-6.7-6.7v-72.5c0-3.7 3-6.7 6.7-6.7h112.5c3.7 0 6.7 3 6.7 6.7v72.5c.1 3.7-2.9 6.7-6.6 6.7z"/><path class="st9" d="M159.5 778h-116c-3.6 0-6.5-2.9-6.5-6.5v-72.9c0-3.6 2.9-6.5 6.5-6.5h115.9c3.6 0 6.5 2.9 6.5 6.5v72.9c.1 3.6-2.8 6.5-6.4 6.5z"/><path class="st17" d="M164.5 783h-116c-3.6 0-6.5-2.9-6.5-6.5v-72.9c0-3.6 2.9-6.5 6.5-6.5h115.9c3.6 0 6.5 2.9 6.5 6.5v72.9c.1 3.6-2.8 6.5-6.4 6.5z"/><path class="st5" d="M43 721h127v10H43z"/><path class="st8" d="M78 755h13.1c.3-.1.6.4.9 1-.3.6-.5 1.1-.9 1H78c-.3.1-.6-.4-1-1 .4-.6.6-1.1 1-1zM49.5 755h10c.8-.6 1.4 0 1.5.8-.1.8-.7 1.4-1.5 1.2h-10c-.8.1-1.4-.5-1.5-1.2.1-.8.8-1.4 1.5-.8zM79.1 769h11.1c.3.5.5 1 .7 1.6-.2.6-.4 1.1-.7.4H79.1c-.3.7-.5.2-.1-.4-.4-.6-.2-1.1.1-1.6zM51.1 769h9.3c.7 0 1.3.6 1.6 1.3-.3.8-.8 1.4-1.6.7h-9.3c-.7.7-1.3.1-1.1-.7-.2-.7.4-1.3 1.1-1.3zM109.5 755h10.8c.3-.1.5.4.7 1-.2.6-.4 1.1-.7 1h-10.8c-.3.1-.5-.4-.5-1s.2-1.1.5-1zM108.5 769h13.1c.3.5.6 1 1.4 1.6-.8.6-1.1 1.1-1.4.4h-13.1c-.3.7-.6.2-.5-.4-.2-.6.1-1.1.5-1.6zM143.3 755h13.1c.3-.1.6.4.6 1s-.3 1.1-.6 1h-13.1c-.3.1-.6-.4-1.3-1 .6-.6.9-1.1 1.3-1zM78 740h13.1c.3-.1.6.4.9 1-.3.6-.5 1.1-.9 1H78c-.3.1-.6-.4-1-1 .4-.6.6-1.1 1-1zM49.5 740h10c.8-.6 1.4 0 1.5.8-.1.8-.7 1.4-1.5 1.2h-10c-.8.1-1.4-.5-1.5-1.2.1-.8.8-1.4 1.5-.8zM109.5 740h10.8c.3-.1.5.4.7 1-.2.6-.4 1.1-.7 1h-10.8c-.3.1-.5-.4-.5-1s.2-1.1.5-1zM143.3 740h13.1c.3-.1.6.4.6 1s-.3 1.1-.6 1h-13.1c-.3.1-.6-.4-1.3-1 .6-.6.9-1.1 1.3-1zM144.6 769h11.3c.3.5.5 1 .2 1.6.4.6.1 1.1-.2.4h-11.3c-.3.7-.5.2-.6-.4.1-.6.3-1.1.6-1.6zM89.8 714H53.2c-1.2 0-2.2-1-2.2-2.2v-.6c0-1.2 1-2.2 2.2-2.2h36.6c1.2 0 2.2 1 2.2 2.2v.6c0 1.2-1 2.2-2.2 2.2z"/><path class="st18" d="M88.8 713H52.2c-1.2 0-2.2-1-2.2-2.2v-.6c0-1.2 1-2.2 2.2-2.2h36.6c1.2 0 2.2 1 2.2 2.2v.6c0 1.2-1 2.2-2.2 2.2z"/><path class="st9" d="M92.6 728H73.4c-.8 0-1.4-.6-1.4-1.4v-.3c0-.8.6-1.4 1.4-1.4h19.3c.8 0 1.4.6 1.4 1.4v.3c-.1.8-.7 1.4-1.5 1.4zM124.6 728h-19.3c-.8 0-1.4-.6-1.4-1.4v-.3c0-.8.6-1.4 1.4-1.4h19.3c.8 0 1.4.6 1.4 1.4v.3c0 .8-.6 1.4-1.4 1.4zM158.6 728h-19.3c-.8 0-1.4-.6-1.4-1.4v-.3c0-.8.6-1.4 1.4-1.4h19.3c.8 0 1.4.6 1.4 1.4v.3c0 .8-.6 1.4-1.4 1.4z"/><path class="st19" d="M225.5 745.3c-4.2 7.3-6.5 15.8-6.5 24.8 0 1.3.1 2.6.2 3.9h-13.6c-.1-1.3-.1-2.6-.1-3.9 0-11.3 2.9-21.9 8-31.1l12 6.3zM333.6 770.1c0 1.3 0 2.6-.1 3.9h-13.6c.1-1.3.2-2.6.2-3.9 0-27.9-22.6-50.5-50.5-50.5-15.8 0-29.9 7.2-39.1 18.6l-12.1-6.6C230 716 248.6 706 269.5 706c35.4 0 64.1 28.7 64.1 64.1z"/><path class="st3" d="M235.8 747.3c-4.7 6.6-7.5 14.7-7.5 23.4v1.8h-20.7v-1.8c0-12.2 3.6-23.6 9.8-33.2l18.4 9.8z"/><path d="M330 771.2v1.8h-20.7v-1.8c0-22.4-18.1-40.5-40.5-40.5-11.5 0-21.8 4.8-29.2 12.4l-18.8-9.9c11.2-14.1 28.5-23.2 48-23.2 33.8 0 61.2 27.4 61.2 61.2z" style="fill:#fff;stroke:#ccd6e4;stroke-width:2;stroke-linecap:round;stroke-miterlimit:10"/><circle class="st21" cx="269" cy="769" r="6"/><path class="st21" d="m261.3 769.1-18.6-16.2 22.4 10c0 .1-4.4.9-3.8 6.2z"/><path class="st22" d="m293.5 748.6 23.7-23.7"/><path class="st19" d="m61.6 837.7 7.4 7.4c-12.6 9.8-20.7 25.1-20.7 42.4v.5H37.9c-.1-20.3 9.1-38.5 23.7-50.3zM137.1 834.7l-7.8 7.4c-8.1-5.1-17.7-8-27.9-8-9.6 0-18.6 2.6-26.4 7.1l-7.6-7.6c9.8-6.3 21.5-9.9 34-9.9 13.3-.1 25.6 4 35.7 11zM164.9 888h-10.4v-.5c0-16.2-7.2-30.8-18.5-40.6l7.4-7.4c13.3 11.8 21.7 29.2 21.5 48.5z"/><path class="st3" d="m64 839.3 11 10.9c-11.4 8.1-18.9 21.5-18.9 36.6v1.7H40h0c-.2-20.1 9.3-38 24-49.2z"/><path class="st9" d="M124.7 848c-7.1-4.3-15.3-6.6-23.7-6.6-7.6 0-15.1 1.9-21.7 5.5l-9.7-9.7c9.4-5.8 20.3-8.9 31.4-8.9 12 0 23.5 3.5 33.3 10.1l-9.6 9.6z"/><path class="st21" d="M101 829.2c11.4 0 22.3 3.2 31.8 9.3l-8.2 8.2c-7.1-4.2-15.2-6.4-23.6-6.4-7.5 0-14.9 1.8-21.5 5.2l-8.3-8.3c9-5.2 19.2-8 29.8-8m0-2c-12.2 0-23.5 3.6-33 9.7L79.1 848c6.5-3.6 13.9-5.7 21.9-5.7 8.8 0 17 2.5 23.9 6.9l11-11c-9.9-6.9-22-11-34.9-11z"/><path class="st9" d="M146.9 888v-.7c0-13.8-6-26.6-16.6-35.3l9.5-9.5c13.4 11.4 21.1 27.9 21.2 45.5h-14.1z"/><path class="st21" d="M139.8 843.9c12.5 11 19.8 26.5 20.1 43.1h-12c-.1-13.6-5.9-26.2-16.1-35.1l8-8m-.1-2.7-10.9 10.9c10.4 8.2 17.1 21 17.1 35.3v1.7h16c.2-19.4-8.5-36.6-22.2-47.9z"/><path class="st21" d="m98.4 885.2-.5.5c-.1.2-.2.4-.3.5-.2.5-.1 1 .1 1.5.5 2.2 2.2 3.9 4.9 3.6.1 0 .1-.1.2-.1l.4-.3.5-.6 32.2-39.3-37.5 34.2z"/><path class="st0" d="M334.5 839.5v35M290.5 839.5v35M247.5 839.5v35"/><path class="st23" d="M208 846h125.8c1.2 0 2.2 1 2.2 2.2v19.6c0 1.2-1 2.2-2.2 2.2H208"/><path class="st24" d="M207 829v56"/><path class="st3" d="M269.4 847.5c.6 0 1.1.9 1.1 2v18c0 1.1-.5 2-1.1 2"/><path class="st22" d="M311.5 837.5v43"/><path class="st11" d="M208 847h58.9c.6 0 1.1.9 1.1 2v18c0 1.1-.5 2-1.1 2H208"/><path class="st0" d="M79.5 1016.5v21"/><path class="st23" d="M39 1020h128.7c1.2 0 2.3.6 2.3 1.4v12.2c0 .8-1 1.4-2.3 1.4H39"/><path class="st11" d="M42 1021h59c.6 0 1 .5 1 1.2v10.6c0 .7-.5 1.2-1 1.2H42"/><path class="st23" d="M39 986h74.7c.7 0 1.3.6 1.3 1.4v12.2c0 .8-.6 1.4-1.3 1.4H39"/><path class="st0" d="M79.5 949.5v21"/><path class="st23" d="M39 953h91.4c.9 0 1.6.6 1.6 1.4v12.2c0 .8-.7 1.4-1.6 1.4H39"/><path class="st24" d="M40 939v107"/><path class="st11" d="M41 954h59.9c.6 0 1.1.5 1.1 1.2v10.6c0 .7-.5 1.2-1.1 1.2H41"/><path class="st3" d="M101.4 1021c.6 0 1.1.5 1.1 1.2v10.6c0 .7-.5 1.2-1.1 1.2"/><path class="st11" d="M41 987h52.1c.5 0 .9.5.9 1.2v10.6c0 .7-.4 1.2-.9 1.2H41"/><path class="st3" d="M93.4 987c.6 0 1.1.5 1.1 1.2v10.6c0 .7-.5 1.2-1.1 1.2M101.4 954c.6 0 1.1.5 1.1 1.2v10.6c0 .7-.5 1.2-1.1 1.2"/><path class="st22" d="M119.5 947.5v26M78.5 981.5v26M134.5 1014.5v26"/><circle class="st3" cx="293" cy="1018" r="11.5"/><path class="st0" d="M227.5 961.5h113M227.5 989.5h113M227.5 1016.5h113"/><path class="st6" d="M215 945v90h130"/><path class="st6" d="M237.8 1016.8s10-5 16-19 4-36 17.1-35.5c12.9.5 3.9 55.5 22.9 56.5s17-66 29-69"/><circle class="st5" cx="237.5" cy="1018.5" r="3.5"/><circle class="st6" cx="237.5" cy="1018.5" r="3.5"/><circle class="st5" cx="293.5" cy="1018.5" r="3.5"/><circle class="st6" cx="293.5" cy="1018.5" r="3.5"/><circle class="st5" cx="322.5" cy="949.5" r="3.5"/><circle class="st6" cx="322.5" cy="949.5" r="3.5"/><circle class="st5" cx="269.5" cy="963.5" r="3.5"/><circle class="st6" cx="269.5" cy="963.5" r="3.5"/><path class="st11" d="M39 1138h124v12H39z"/><path class="st25" d="M39.5 1098.5h122M39.5 1120.5h122M39.5 1136.5h122"/><path class="st2" d="M59 1136v-45.5c0-1.4 1.5-2.5 3.3-2.5h14.4c1.8 0 3.3 1.1 3.3 2.5v45.5M94 1136v-32.5c0-1.4 1.5-2.5 3.3-2.5h14.4c1.8 0 3.3 1.1 3.3 2.5v32.5M128 1136v-18.5c0-1.4 1.5-2.5 3.3-2.5h14.4c1.8 0 3.3 1.1 3.3 2.5v18.5"/><path class="st9" d="M97.4 1143h14c.4-.1.7.4.6 1 .1.6-.2 1.1-.6 1h-14c-.4.1-.7-.4-1.4-1 .7-.6 1-1.1 1.4-1zM54 1143h21.7c.8-.6 1.5 0 1.3.7.3.8-.4 1.4-1.3 1.3H54c-.8.1-1.5-.5-2-1.3.5-.7 1.2-1.3 2-.7zM132.9 1143h11.7c.3-.1.6.4.4 1 .2.6-.1 1.1-.4 1h-11.7c-.3.1-.6-.4-.9-1 .3-.6.5-1.1.9-1z"/><path class="st19" d="M231.5 1123h-13c-2.5 0-4.5-2-4.5-4.5s2-4.5 4.5-4.5h13c2.5 0 4.5 2 4.5 4.5s-2 4.5-4.5 4.5z"/><path class="st8" d="M215 1131h28.1c.3.4.5.8-.1 1.4.6.6.4 1.1.1.5H215c-.3.5-.5.1-1-.5.5-.6.7-1 1-1.4z"/><path class="st23" d="m285 1122.8-5.2 14.2h-20.9c-2.7 0-4.9-3.2-4.9-7.2v-13.5c0-4 2.2-7.2 4.9-7.2h19.5l6.6 13.7zM353 1122.8l-5.2 14.2h-20.9c-2.7 0-4.9-3.2-4.9-7.2v-13.5c0-4 2.2-7.2 4.9-7.2h19.5l6.6 13.7z"/><path class="st19" d="M305.9 1123h-8.8c-2.3 0-4.1-1.8-4.1-4.1v-.8c0-2.3 1.8-4.1 4.1-4.1h8.8c2.3 0 4.1 1.8 4.1 4.1v.8c0 2.3-1.8 4.1-4.1 4.1z"/><path class="st8" d="M293.5 1131h22.6c.2.4.4.8.8 1.4-.4.6-.6 1.1-.8.5h-22.6c-.2.5-.4.1-.5-.5.1-.6.3-1 .5-1.4z"/><path class="st2" d="M159.7 1273H42.3c-3.5 0-6.3-2.8-6.3-6.3v-67.3c0-3.5 2.8-6.3 6.3-6.3h117.3c3.5 0 6.3 2.8 6.3 6.3v67.3c.1 3.5-2.7 6.3-6.2 6.3z"/><path class="st5" d="M38 1202h125v13H38z"/><path class="st9" d="M72.2 1211H48.8c-1 0-1.8-.8-1.8-1.8v-.5c0-1 .8-1.8 1.8-1.8h23.5c1 0 1.8.8 1.8 1.8v.5c-.1 1-.9 1.8-1.9 1.8zM115.2 1211H91.8c-1 0-1.8-.8-1.8-1.8v-.5c0-1 .8-1.8 1.8-1.8h23.5c1 0 1.8.8 1.8 1.8v.5c-.1 1-.9 1.8-1.9 1.8zM155.2 1211h-23.5c-1 0-1.8-.8-1.8-1.8v-.5c0-1 .8-1.8 1.8-1.8h23.5c1 0 1.8.8 1.8 1.8v.5c0 1-.8 1.8-1.8 1.8z"/><path class="st23" d="M80 1255H48.2c-2.3 0-4.2-3.1-4.2-7v-13c0-3.9 1.9-7 4.2-7H79"/><path class="st26" d="M111.5 1227.5h41.3c2.6 0 4.7 3.2 4.7 7.2v13.5c0 4-2.1 7.2-4.7 7.2h-40.3"/><path class="st23" d="m122.5 1241.6-4.7 13.4H80.1l4.9-14-5.9-13h37.1zM326.1 1204H236c-3.8 0-6.9-3.1-6.9-6.9v-.1c0-3.8 3.1-6.9 6.9-6.9h90.1c3.8 0 6.9 3.1 6.9 6.9v.1c0 3.8-3.1 6.9-6.9 6.9z"/><path class="st26" d="M315.6 1229.5h-68.1c-3.8 0-6.9-3.1-6.9-6.9v-.1c0-3.8 3.1-6.9 6.9-6.9h68.1c3.8 0 6.9 3.1 6.9 6.9v.1c0 3.8-3.1 6.9-6.9 6.9z"/><path class="st23" d="M304.1 1254H259c-3.8 0-6.9-3.1-6.9-6.9v-.1c0-3.8 3.1-6.9 6.9-6.9h45.1c3.8 0 6.9 3.1 6.9 6.9v.1c0 3.8-3.1 6.9-6.9 6.9zM295 1279h-26c-3.8 0-7-3.1-7-7v-.1c0-3.8 3.1-7 7-7h26c3.8 0 7 3.1 7 7v.1c0 3.9-3.1 7-7 7z"/><path class="st26" d="M172.5 1322.7v13.5c0 4-2.3 7.2-5.1 7.2h-57l5.5-14.3-6.9-13.7h58.4c2.8.1 5.1 3.3 5.1 7.3z"/><path class="st23" d="M81 1344H37.2c-2.9 0-5.2-3.1-5.2-7v-13c0-3.9 2.3-7 5.2-7H79"/><path class="st23" d="m123 1330.6-5.3 13.4h-43l5.5-14-6.6-13H116z"/><path class="st2" d="M342.6 1398H225.4c-3.5 0-6.4-2.9-6.4-6.4v-69.2c0-3.5 2.9-6.4 6.4-6.4h117.2c3.5 0 6.4 2.9 6.4 6.4v69.2c0 3.5-2.9 6.4-6.4 6.4z"/><path class="st5" d="M228 1324h58v65h-58z"/><path class="st19" d="M286 1325h54v65h-54z"/><path class="st21" d="M333.8 1325h-3.2c-.3 0-.5.2-.5.5s.2.5.5.5h3.2c.3 0 .5-.2.5-.5s-.2-.5-.5-.5zm-6.2 0h-3.2c-.3 0-.5.2-.5.5s.2.5.5.5h3.2c.3 0 .5-.2.5-.5s-.3-.5-.5-.5zm-6.3 0h-3.2c-.3 0-.5.2-.5.5s.2.5.5.5h3.2c.3 0 .5-.2.5-.5s-.2-.5-.5-.5zm-6.2 0h-3.2c-.3 0-.5.2-.5.5s.2.5.5.5h3.2c.3 0 .5-.2.5-.5s-.2-.5-.5-.5zm-6.2 0h-3.2c-.3 0-.5.2-.5.5s.2.5.5.5h3.2c.3 0 .5-.2.5-.5s-.2-.5-.5-.5zm-6.2 0h-3.2c-.3 0-.5.2-.5.5s.2.5.5.5h3.2c.3 0 .5-.2.5-.5s-.2-.5-.5-.5zm-6.2 0h-3.2c-.3 0-.5.2-.5.5s.2.5.5.5h3.2c.3 0 .5-.2.5-.5s-.3-.5-.5-.5zm-6.3 0H287c-.3 0-.5.2-.5.5s.2.5.5.5h3.2c.3 0 .5-.2.5-.5s-.2-.5-.5-.5zm-3.7 1.5c-.3 0-.5.2-.5.5v3.2c0 .3.2.5.5.5s.5-.2.5-.5v-3.2c0-.3-.2-.5-.5-.5zm0 6.2c-.3 0-.5.2-.5.5v3.2c0 .3.2.5.5.5s.5-.2.5-.5v-3.2c0-.3-.2-.5-.5-.5zm0 6.2c-.3 0-.5.2-.5.5v3.2c0 .3.2.5.5.5s.5-.2.5-.5v-3.2c0-.3-.2-.5-.5-.5zm0 6.2c-.3 0-.5.2-.5.5v3.2c0 .3.2.5.5.5s.5-.2.5-.5v-3.2c0-.2-.2-.5-.5-.5zm0 6.3c-.3 0-.5.2-.5.5v3.2c0 .3.2.5.5.5s.5-.2.5-.5v-3.2c0-.3-.2-.5-.5-.5zm0 6.2c-.3 0-.5.2-.5.5v3.2c0 .3.2.5.5.5s.5-.2.5-.5v-3.2c0-.3-.2-.5-.5-.5zm0 6.2c-.3 0-.5.2-.5.5v3.2c0 .3.2.5.5.5s.5-.2.5-.5v-3.2c0-.3-.2-.5-.5-.5zm0 6.2c-.3 0-.5.2-.5.5v3.2c0 .3.2.5.5.5s.5-.2.5-.5v-3.2c0-.3-.2-.5-.5-.5zm0 6.2c-.3 0-.5.2-.5.5v3.2c0 .3.2.5.5.5s.5-.2.5-.5v-3.2c0-.2-.2-.5-.5-.5zm0 6.3c-.3 0-.5.2-.5.5v3.2c0 .3.2.5.5.5s.5-.2.5-.5v-3.2c0-.3-.2-.5-.5-.5zm0 6.2c-.2 0-.4.1-.5.3v.2-.2 1H288.4c.3 0 .5-.2.5-.5s-.2-.5-.5-.5H287c-.1-.2-.3-.3-.5-.3zm8.1.3s-.1 0 0 0h-3.2c-.3 0-.5.2-.5.5s.2.5.5.5h3.2c.3 0 .5-.2.5-.5s-.2-.5-.5-.5zm6.2 0h-3.2c-.3 0-.5.2-.5.5s.2.5.5.5h3.2c.3 0 .5-.2.5-.5s-.2-.5-.5-.5zm6.3 0c-.1 0-.1 0 0 0h-3.2c-.3 0-.5.2-.5.5s.2.5.5.5h3.2c.3 0 .5-.2.5-.5s-.3-.5-.5-.5zm6.2 0c-.1 0-.1 0 0 0h-3.2c-.3 0-.5.2-.5.5s.2.5.5.5h3.2c.3 0 .5-.2.5-.5s-.2-.5-.5-.5zm6.2 0c-.1 0-.1 0 0 0h-3.2c-.3 0-.5.2-.5.5s.2.5.5.5h3.2c.3 0 .5-.2.5-.5s-.2-.5-.5-.5zm6.2 0s-.1 0 0 0h-3.2c-.3 0-.5.2-.5.5s.2.5.5.5h3.2c.3 0 .5-.2.5-.5s-.2-.5-.5-.5zm6.2 0h-3.2c-.3 0-.5.2-.5.5s.2.5.5.5h3.2c.3 0 .5-.2.5-.5s-.2-.5-.5-.5zm6.3 0c-.1 0-.1 0 0 0H335c-.3 0-.5.2-.5.5s.2.5.5.5h3.2c.3 0 .5-.2.5-.5s-.3-.5-.5-.5zm1.3-3.9c-.3 0-.5.2-.5.5v3.2c0 .3.2.5.5.5s.5-.2.5-.5v-3.2c0-.3-.2-.5-.5-.5zm0-6.2c-.3 0-.5.2-.5.5v3.2c0 .3.2.5.5.5s.5-.2.5-.5v-3.2c0-.3-.2-.5-.5-.5zm0-6.2c-.3 0-.5.2-.5.5v3.2c0 .3.2.5.5.5s.5-.2.5-.5v-3.2c0-.3-.2-.5-.5-.5zm0-6.2c-.3 0-.5.2-.5.5v3.2c0 .3.2.5.5.5s.5-.2.5-.5v-3.2c0-.3-.2-.5-.5-.5zm0-6.3c-.3 0-.5.2-.5.5v3.2c0 .3.2.5.5.5s.5-.2.5-.5v-3.2c0-.2-.2-.5-.5-.5zm0-6.2c-.3 0-.5.2-.5.5v3.2c0 .3.2.5.5.5s.5-.2.5-.5v-3.2c0-.3-.2-.5-.5-.5zm0-6.2c-.3 0-.5.2-.5.5v3.2c0 .3.2.5.5.5s.5-.2.5-.5v-3.2c0-.3-.2-.5-.5-.5zm0-6.2c-.3 0-.5.2-.5.5v3.2c0 .3.2.5.5.5s.5-.2.5-.5v-3.2c0-.3-.2-.5-.5-.5zm0-6.2c-.3 0-.5.2-.5.5v3.2c0 .3.2.5.5.5s.5-.2.5-.5v-3.2c0-.3-.2-.5-.5-.5zm0-6.3c-.3 0-.5.2-.5.5v3.2c0 .3.2.5.5.5s.5-.2.5-.5v-3.2c0-.2-.2-.5-.5-.5zm.5-4.1h-3.2c-.3 0-.5.2-.5.5s.2.5.5.5h2.2v.6c0 .3.2.5.5.5s.5-.2.5-.5v-1.6z"/><path class="st9" d="M267.2 1341h-23.5c-1 0-1.8-.8-1.8-1.8v-.5c0-1 .8-1.8 1.8-1.8h23.5c1 0 1.8.8 1.8 1.8v.5c0 1-.8 1.8-1.8 1.8zM269.2 1360h-25.4c-1 0-1.8-.8-1.8-1.8v-.4c0-1 .8-1.8 1.8-1.8h25.4c1 0 1.8.8 1.8 1.8v.4c0 1-.8 1.8-1.8 1.8zM259.5 1368h-16.1c-.8 0-1.5-.7-1.5-1.5v-1.1c0-.8.7-1.5 1.5-1.5h16.1c.8 0 1.5.7 1.5 1.5v1.1c0 .8-.7 1.5-1.5 1.5zM267.2 1376h-23.5c-1 0-1.8-.8-1.8-1.8v-.5c0-1 .8-1.8 1.8-1.8h23.5c1 0 1.8.8 1.8 1.8v.5c0 1-.8 1.8-1.8 1.8zM290 1345h14v7h-14zM306 1345h14v7h-14zM322 1345h14v7h-14zM290 1358h14v7h-14zM306 1358h14v7h-14zM322 1358h14v7h-14zM290 1372h14v7h-14zM306 1372h14v7h-14zM322 1372h14v7h-14z"/><path class="st2" d="M154.6 1467H37.4c-3.5 0-6.4-2.9-6.4-6.4v-69.2c0-3.5 2.9-6.4 6.4-6.4h117.2c3.5 0 6.4 2.9 6.4 6.4v69.2c0 3.5-2.9 6.4-6.4 6.4z"/><path class="st5" d="M48 1404h20v45H48zM75 1404h20v45H75zM101 1404h20v45h-20z"/><path style="fill:#eff3f7;stroke:#ccd6e4;stroke-width:.9908;stroke-linecap:round;stroke-linejoin:round;stroke-miterlimit:10;stroke-dasharray:2.9725,0,0,0,0,2.9725" d="M126.5 1403.5h20v45h-20z"/><path class="st5" d="M47 1453h99v5H47zM47 1392h99v9H47z"/><circle class="st5" cx="238.5" cy="1475.5" r="3.5"/><circle class="st6" cx="238.5" cy="1475.5" r="3.5"/><circle class="st5" cx="331.5" cy="1455.5" r="3.5"/><circle class="st6" cx="331.5" cy="1455.5" r="3.5"/><circle class="st5" cx="259.5" cy="1455.5" r="3.5"/><circle class="st6" cx="259.5" cy="1455.5" r="3.5"/><circle class="st5" cx="316.5" cy="1520.5" r="3.5"/><circle class="st6" cx="316.5" cy="1520.5" r="3.5"/><circle class="st5" cx="257.5" cy="1524.5" r="3.5"/><circle class="st6" cx="257.5" cy="1524.5" r="3.5"/><circle class="st5" cx="309.5" cy="1475.5" r="3.5"/><circle class="st6" cx="309.5" cy="1475.5" r="3.5"/><path class="st6" d="M285 1439v55h67M285 1549v-55h-67"/><circle class="st5" cx="48.5" cy="1552.5" r="3.5"/><circle class="st6" cx="48.5" cy="1552.5" r="3.5"/><circle class="st5" cx="112.5" cy="1550.5" r="3.5"/><circle class="st6" cx="112.5" cy="1550.5" r="3.5"/><circle class="st5" cx="152.5" cy="1583.5" r="3.5"/><circle class="st5" cx="152.5" cy="1583.5" r="3.5"/><circle class="st5" cx="134.5" cy="1526.5" r="3.5"/><circle class="st5" cx="134.5" cy="1526.5" r="3.5"/><circle class="st28" cx="74.5" cy="1524.5" r="8"/><circle class="st28" cx="74.5" cy="1524.5" r="8"/><circle class="st5" cx="120" cy="1600" r="7"/><circle class="st6" cx="121" cy="1600" r="7"/><circle class="st5" cx="72" cy="1588" r="4"/><circle class="st6" cx="73" cy="1588" r="4"/><path class="st6" d="M95 1510v55h67M95 1620v-55H28"/><path d="M275 1598.5c-19.4 0-35 15.6-35 35 0 19.3 15.6 35 35 35s35-15.7 35-35-15.6-35-35-35zm-24.9 35c0-13.8 11.1-24.9 24.9-24.9 5.4 0 10.3 1.6 14.3 4.5l-34.7 34.7c-2.8-4-4.5-8.9-4.5-14.3zm24.9 24.9c-5.4 0-10.3-1.7-14.3-4.5l34.7-34.7c2.9 4 4.5 9 4.5 14.3 0 13.8-11.1 24.9-24.9 24.9z" style="fill:#e3e9ef"/><path style="fill:#fff;stroke:#ccd6e4;stroke-width:2;stroke-linecap:round;stroke-linejoin:round;stroke-miterlimit:10" d="m70.6 1672.4-7.8-8.4h-22l-7.8 8.4"/><path class="st9" d="M35.3 1685c-1.3 0-2.3-1-2.3-2.3v-9.7h10c0 2.2 1.8 4 4 4h8c2.2 0 4-1.8 4-4h12v9.7c0 1.3-1 2.3-2.3 2.3H35.3z"/><path class="st21" d="M70 1674v8.7c0 .7-.6 1.3-1.3 1.3H35.3c-.7 0-1.3-.6-1.3-1.3v-8.7h8.1c.4 2.3 2.5 4 4.9 4h8c2.4 0 4.4-1.7 4.9-4H70m2-2H58v1c0 1.6-1.3 3-3 3h-8c-1.6 0-3-1.3-3-3v-1H32v10.7c0 1.8 1.5 3.3 3.3 3.3h33.3c1.8 0 3.3-1.5 3.3-3.3l.1-10.7z"/><path class="st31" d="M51.5 1656.5v-5M59.2 1658.6l2-5.7M43.8 1659.2l-2-5.7"/><path id="Stroke-1_1_" class="st32" d="M76.7 1768H34.4c-4.1 0-7.4-3.3-7.4-7.4v-32.2c0-4.1 3.3-7.4 7.4-7.4h42.2c4.1 0 7.4 3.3 7.4 7.4v32.2c.1 4.1-3.2 7.4-7.3 7.4z"/><path id="Stroke-3_1_" class="st32" d="M140.7 1768H98.4c-4.1 0-7.4-3.3-7.4-7.4v-32.2c0-4.1 3.3-7.4 7.4-7.4h42.2c4.1 0 7.4 3.3 7.4 7.4v32.2c.1 4.1-3.2 7.4-7.3 7.4z"/><path id="Stroke-5_1_" class="st32" d="M76.7 1821H34.4c-4.1 0-7.4-3.3-7.4-7.4v-32.2c0-4.1 3.3-7.4 7.4-7.4h42.2c4.1 0 7.4 3.3 7.4 7.4v32.2c.1 4.1-3.2 7.4-7.3 7.4z"/><path id="Fill-7_1_" d="M141 1821H98.4c-4.1 0-7.4-3.3-7.4-7.4v-32.2c0-4.1 3.3-7.4 7.4-7.4h42.2c4.1 0 7.4 3.3 7.4 7.4v32.2c0 4.1-3.3 7.5-7.4 7.5" style="fill-rule:evenodd;clip-rule:evenodd;fill:#e8f0f9"/><path id="Stroke-9_1_" d="M140.2 1820.5H97.9c-4.1 0-7.4-3.3-7.4-7.4v-32.2c0-4.1 3.3-7.4 7.4-7.4h42.2c4.1 0 7.4 3.3 7.4 7.4v32.2c.1 4.1-3.2 7.4-7.3 7.4z" style="fill:none;stroke:#c8cdd6;stroke-linecap:round;stroke-linejoin:round;stroke-dasharray:3,0,0,0,0,3"/><circle cx="140" cy="1811" r="24" style="fill-rule:evenodd;clip-rule:evenodd;fill:#f2f8fc"/><path class="st21" d="M142.9 1823.8c0 .7-.3 1.4-.8 1.8-.5.5-1.1.7-1.8.7-.5 0-1.1-.1-1.6-.7-.4-.4-.7-1.1-.7-1.6 0-.7.3-1.2.8-1.8.5-.5 1.1-.7 1.9-.7.7 0 1.4.3 1.6.7.2.3.6.9.6 1.6zm-.3-24c0 .3-.1 1.9-.4 5.1l-1.2 12.9c-.1.7-.3.8-.7.8s-.7-.3-.7-.8l-1.4-12.9c-.3-2.7-.4-4.4-.4-5.1 0-2.5.8-3.7 2.5-3.7 1.6.1 2.3 1.2 2.3 3.7z"/><path class="st36" d="M360.9 1821.2H220.1c-1.3 0-2.3-1-2.3-2.3V1724c0-1.3 1-2.3 2.3-2.3H361c1.3 0 2.3 1 2.3 2.3v94.9c-.1 1.3-1.1 2.3-2.4 2.3z"/><path class="st0" d="M247.8 1740.4h109.9M247.8 1768.4h109.9M247.8 1795.4h109.9"/><path d="M361.8 1723.8h-90.9c0 .6-.1 1.3-.1 1.9 0 44.2 40.8 79.9 91 79.6v-81.5z" style="fill:#f4f7f9;stroke:#ccd6e5;stroke-width:2;stroke-miterlimit:10"/><path class="st38" d="M361.8 1723.8h-60.9c0 .7-.1 1.3-.1 2 0 29.6 27.4 53.5 61 53.1v-55.1z"/><path d="M361.8 1723.8h-33.1c0 .6-.1 1.3-.1 1.9 0 16 14.9 29 33.2 28.6v-30.5z" style="fill:#f2f6f9;stroke:#dce3ea;stroke-linecap:round;stroke-miterlimit:10"/><path style="fill:none;stroke:#ccd6e5;stroke-width:2;stroke-miterlimit:10" d="M231.6 1723.2h130.1l.1 95.2"/><path class="st36" d="M156.2 1945.9H32.8c-1.3 0-2.3-1-2.3-2.3V1871c0-1.3 1-2.3 2.3-2.3h123.4c1.3 0 2.3 1 2.3 2.3v72.6c0 1.3-1 2.3-2.3 2.3z"/><path class="st41" d="M31 1878.9h119M31 1906.9h119M31 1933.9h119"/><path class="st6" d="M153.5 1953.4h-130v-74.8"/><circle class="st5" cx="89" cy="1890.1" r="5.8"/><circle class="st38" cx="89" cy="1890.1" r="5.8"/><circle class="st5" cx="52" cy="1908.1" r="5.8"/><circle class="st38" cx="52" cy="1908.1" r="5.8"/><circle class="st5" cx="85" cy="1929.1" r="5.8"/><circle class="st38" cx="85" cy="1929.1" r="5.8"/><circle class="st5" cx="128" cy="1922.1" r="5.8"/><circle class="st38" cx="128" cy="1922.1" r="5.8"/><circle class="st42" cx="52" cy="1908.1" r="3.5"/><circle class="st42" cx="89" cy="1890.1" r="3.5"/><circle class="st42" cx="85" cy="1929.1" r="3.5"/><circle class="st42" cx="128" cy="1922.1" r="3.5"/></svg>