<svg width="14" height="15" viewBox="0 0 14 15" fill="none" xmlns="http://www.w3.org/2000/svg">
<path d="M10.6167 14.4802H10.6167V14.4779V5.77122C10.6167 5.68451 10.5808 5.60152 10.5167 5.54137C10.5166 5.54124 10.5164 5.54111 10.5163 5.54098L7.97854 3.1335C7.91875 3.07511 7.83808 3.04443 7.75644 3.04443H1.18859C1.01345 3.04443 0.867427 3.18552 0.867427 3.36248V14.476C0.867427 14.6529 1.01345 14.794 1.18859 14.794H10.2935C10.4703 14.794 10.6134 14.6557 10.6167 14.4802ZM9.97236 5.90594V14.1579H1.50974V3.67854H7.62608L9.97236 5.90594Z" fill="black" stroke="black" stroke-width="0.240244"/>
<path d="M10.2941 11.9571H12.799C12.9741 11.9571 13.1201 11.816 13.1201 11.639V2.9323C13.1201 2.75534 12.9741 2.61425 12.799 2.61425C12.6238 2.61425 12.4778 2.75534 12.4778 2.9323V11.321H10.2941C10.1189 11.321 9.9729 11.4621 9.9729 11.639C9.9729 11.816 10.1189 11.9571 10.2941 11.9571Z" fill="black" stroke="black" stroke-width="0.240244"/>
<path d="M3.37231 3.36234C3.37231 3.5393 3.51833 3.68038 3.69347 3.68038C3.86861 3.68038 4.01463 3.5393 4.01463 3.36234V0.842143H10.4423C10.6174 0.842143 10.7634 0.701056 10.7634 0.524097C10.7634 0.347137 10.6174 0.20605 10.4423 0.20605H3.69347C3.51833 0.20605 3.37231 0.347137 3.37231 0.524097V3.36234Z" fill="black" stroke="black" stroke-width="0.240244"/>
<path d="M12.7122 3.21403L12.7476 3.25071L12.9434 2.79412L13.0293 2.71012L13.0291 2.71001L10.6731 0.301378L10.673 0.301267C10.582 0.208494 10.4444 0.181344 10.3246 0.227888L10.3246 0.22786L10.3221 0.228886C10.2039 0.27787 10.1213 0.390931 10.1213 0.523922C10.1213 0.549969 10.1289 0.571133 10.1332 0.581733C10.1382 0.59435 10.1444 0.606094 10.1502 0.616118C10.1619 0.636247 10.1773 0.658257 10.194 0.680607C10.2279 0.725765 10.2749 0.781693 10.3294 0.843349C10.439 0.967158 10.5852 1.12069 10.7341 1.27004C10.883 1.41939 11.0362 1.56611 11.1598 1.67607C11.2214 1.73083 11.2774 1.77796 11.3226 1.81202C11.345 1.82887 11.3671 1.84429 11.3874 1.85605C11.3954 1.86069 11.4045 1.86558 11.4142 1.86993L12.7122 3.21403Z" fill="black" stroke="black" stroke-width="0.240244"/>
</svg>
