<svg width="15" height="15" viewBox="0 0 15 15" fill="none" xmlns="http://www.w3.org/2000/svg">
<path d="M13.507 7.49895V7.49902C13.507 10.8103 10.8112 13.5061 7.5 13.5061C4.18874 13.5061 1.49295 10.812 1.49295 7.49902C1.49295 4.18779 4.18877 1.49198 7.5 1.49198C10.813 1.49198 13.5088 4.18782 13.507 7.49895ZM0.860019 7.49902C0.860019 11.1607 3.8382 14.1408 7.5 14.1408L14 7.49902H14.14C14.14 7.499 14.14 7.49898 14.14 7.49895C14.1399 3.83723 11.1617 0.859042 7.5 0.859042C3.83825 0.859042 0.860019 3.83727 0.860019 7.49902Z" fill="#9F0000" stroke="#9F0000" stroke-width="0.279962"/>
<path d="M7.5 3.99902V8.99902" stroke="#9F0000" stroke-linecap="round"/>
<path d="M7.50098 11.3077V11.2148" stroke="#9F0000" stroke-linecap="round"/>
</svg>
