<svg width="3440" height="1440" viewBox="0 0 3440 1440" fill="none" xmlns="http://www.w3.org/2000/svg">
<rect width="3440" height="1440" fill="#0052CD" fill-opacity="0.05"/>
<path opacity="0.5" d="M4126.85 872.533C4126.85 1246.87 3873.09 1549.07 3561.49 1549.07C3249.89 1549.07 2996.13 1246.87 2996.13 872.533C2996.13 498.196 3249.89 196 3561.49 196C3873.09 196 4126.85 498.196 4126.85 872.533Z" stroke="white" stroke-width="8"/>
<path opacity="0.5" d="M1511.6 993.693C1195.24 1271.6 587.197 1369.72 153.323 1212.12C-280.552 1054.51 -374.778 701.284 -58.4194 423.382C257.939 145.479 865.984 47.3497 1299.86 204.955C1733.73 362.56 1827.96 715.79 1511.6 993.693Z" stroke="white" stroke-width="8"/>
<path opacity="0.5" d="M1122.49 1153.58C913.161 1299.3 683.146 1384.27 480.631 1404C278.019 1423.74 103.73 1378.16 4.47111 1263.82C-94.7879 1149.47 -101.12 986.979 -29.7802 816.015C41.5254 645.132 190.215 466.476 399.543 320.757C608.871 175.039 838.885 90.068 1041.4 70.3367C1244.01 50.596 1418.3 96.1723 1517.56 210.517C1616.82 324.862 1623.15 487.358 1551.81 658.322C1480.51 829.205 1331.82 1007.86 1122.49 1153.58Z" stroke="white" stroke-width="8"/>
</svg>
