<svg width="19" height="18" viewBox="0 0 19 18" fill="none" xmlns="http://www.w3.org/2000/svg">
<path d="M17.8635 9.05899C17.8635 13.6972 14.1035 17.4572 9.46524 17.4572C4.82703 17.4572 1.06701 13.6972 1.06701 9.05899C1.06701 4.42078 4.82703 0.660762 9.46524 0.660762C14.1035 0.660762 17.8635 4.42078 17.8635 9.05899Z" fill="url(#paint0_linear_1453_1077)" stroke="#DB8828" stroke-width="0.884024"/>
<path d="M12.3322 6.17398H12.5532V5.95298V4.51942V4.29842H12.3322H10.7612V3.56372V3.34271H10.5402H8.86776H8.64675V3.56372V4.29842H6.12012H5.58656L5.96384 4.6757L10.2277 8.93955L5.96384 13.2034L5.58656 13.5807H6.12012H8.64675V14.5543V14.7753H8.86776H10.5402H10.7612V14.5543V13.5807H12.3322H12.5532V13.3597V11.9261V11.7051H12.3322H10.2225L12.7305 9.0926L12.8775 8.93955L12.7305 8.78649L10.2225 6.17398H12.3322Z" fill="white" stroke="#DB8828" stroke-width="0.442012"/>
<defs>
<linearGradient id="paint0_linear_1453_1077" x1="16.341" y1="3.65662" x2="2.09837" y2="14.4614" gradientUnits="userSpaceOnUse">
<stop stop-color="#FFD100"/>
<stop offset="0.505208" stop-color="#FB8E3A"/>
<stop offset="1" stop-color="#FFD100"/>
</linearGradient>
</defs>
</svg>
