<svg width="24" height="24" viewBox="0 0 24 24" fill="none" xmlns="http://www.w3.org/2000/svg">
    <path d="M17.4619 15.3998C17.647 15.2189 17.8949 15.1188 18.1522 15.121C18.4095 15.1233 18.6556 15.2278 18.8375 15.4119C19.0195 15.596 19.1227 15.8451 19.1249 16.1054C19.1271 16.3658 19.0282 16.6167 18.8495 16.804L15.727 19.9639C14.4387 21.2676 12.6914 22 10.8695 22C9.04759 22 7.30031 21.2676 6.01203 19.9639C4.72375 18.6602 4 16.892 4 15.0482C4 13.2045 4.72375 11.4363 6.01203 10.1326L11.5643 4.51585C12.0169 4.04161 12.5583 3.66334 13.1569 3.40312C13.7555 3.14289 14.3993 3.00592 15.0508 3.00019C15.7023 2.99446 16.3484 3.12009 16.9514 3.36975C17.5544 3.61941 18.1022 3.9881 18.5629 4.4543C19.0236 4.92051 19.3879 5.47489 19.6346 6.08511C19.8813 6.69532 20.0055 7.34915 19.9998 8.00844C19.9942 8.66773 19.8588 9.31928 19.6017 9.92506C19.3445 10.5308 18.9707 11.0787 18.5021 11.5368L12.9518 17.1555C12.3997 17.7143 11.6508 18.0282 10.87 18.0282C10.0891 18.0282 9.34028 17.7143 8.78814 17.1555C8.23601 16.5968 7.92582 15.8389 7.92582 15.0487C7.92582 14.2585 8.23601 13.5007 8.78814 12.942L13.2982 8.37785C13.3893 8.28559 13.4975 8.21239 13.6166 8.16243C13.7356 8.11247 13.8633 8.08673 13.9922 8.08669C14.121 8.08664 14.2487 8.11229 14.3678 8.16216C14.4869 8.21203 14.5951 8.28516 14.6863 8.37736C14.7775 8.46956 14.8498 8.57903 14.8992 8.69952C14.9485 8.82001 14.974 8.94916 14.974 9.07959C14.9741 9.21003 14.9487 9.3392 14.8994 9.45973C14.8501 9.58025 14.7779 9.68977 14.6868 9.78204L10.1757 14.3461C10.0846 14.4384 10.0123 14.5479 9.96306 14.6685C9.91378 14.789 9.88843 14.9181 9.88848 15.0486C9.88853 15.179 9.91396 15.3082 9.96333 15.4287C10.0127 15.5492 10.085 15.6586 10.1762 15.7508C10.2674 15.843 10.3756 15.9161 10.4947 15.966C10.6138 16.0159 10.7414 16.0415 10.8703 16.0415C10.9992 16.0414 11.1268 16.0157 11.2459 15.9658C11.365 15.9158 11.4732 15.8426 11.5643 15.7503L17.1145 10.1326C17.3957 9.85777 17.62 9.52903 17.7743 9.16556C17.9286 8.80209 18.0098 8.41116 18.0132 8.01559C18.0166 7.62002 17.9421 7.22772 17.794 6.86159C17.646 6.49546 17.4274 6.16283 17.151 5.88311C16.8746 5.60338 16.5459 5.38217 16.1841 5.23237C15.8223 5.08258 15.4347 5.0072 15.0438 5.01064C14.6529 5.01407 14.2666 5.09626 13.9074 5.25239C13.5482 5.40853 13.2234 5.63549 12.9518 5.92003L7.40058 11.5378C6.49974 12.4729 5.99925 13.7296 6.00752 15.0355C6.01579 16.3415 6.53215 17.5916 7.44475 18.515C8.35735 19.4384 9.59271 19.9608 10.8832 19.9689C12.1737 19.9771 13.4154 19.4705 14.3394 18.5587L17.4619 15.3998Z" fill="black" />
</svg>
