<svg width="24" height="28" viewBox="0 0 24 28" fill="none" xmlns="http://www.w3.org/2000/svg">
    <path d="M13.5 1.5C13.5 0.671573 12.8284 1.25619e-07 12 8.9407e-08C11.1716 5.31953e-08 10.5 0.671573 10.5 1.5L13.5 1.5ZM10.9393 27.5607C11.5251 28.1464 12.4749 28.1464 13.0607 27.5607L22.6066 18.0147C23.1924 17.4289 23.1924 16.4792 22.6066 15.8934C22.0208 15.3076 21.0711 15.3076 20.4853 15.8934L12 24.3787L3.51472 15.8934C2.92893 15.3076 1.97919 15.3076 1.3934 15.8934C0.807611 16.4792 0.807611 17.4289 1.3934 18.0147L10.9393 27.5607ZM10.5 1.5L10.5 26.5L13.5 26.5L13.5 1.5L10.5 1.5Z" fill="#E8EDF2"/>
</svg>
