<svg xmlns="http://www.w3.org/2000/svg" width="29" height="23" viewBox="0 0 29 23" fill="none">
    <path d="M27 13C27.8284 13 28.5 12.3284 28.5 11.5C28.5 10.6716 27.8284 10 27 10L27 13ZM0.93934 10.4393C0.353553 11.0251 0.353553 11.9749 0.93934 12.5607L10.4853 22.1066C11.0711 22.6924 12.0208 22.6924 12.6066 22.1066C13.1924 21.5208 13.1924 20.5711 12.6066 19.9853L4.12132 11.5L12.6066 3.01472C13.1924 2.42893 13.1924 1.47918 12.6066 0.893398C12.0208 0.307611 11.0711 0.307611 10.4853 0.893397L0.93934 10.4393ZM27 10L2 10L2 13L27 13L27 10Z" fill="#0052CD"/>
</svg>
