<svg width="16" height="24" viewBox="0 0 16 24" fill="none" xmlns="http://www.w3.org/2000/svg">
<path fill-rule="evenodd" clip-rule="evenodd" d="M14.8029 12.4446C15.0338 12.5216 15.1586 12.7712 15.0816 13.0021L14.2996 15.3482C12.2697 21.4378 3.62688 21.3536 1.716 15.2256L1.0201 12.994C0.947636 12.7616 1.07728 12.5144 1.30966 12.442C1.54205 12.3695 1.78918 12.4992 1.86164 12.7315L2.55754 14.9632C4.21364 20.2741 11.7041 20.3471 13.4633 15.0694L14.2454 12.7234C14.3223 12.4924 14.5719 12.3676 14.8029 12.4446Z" fill="#0052CD" stroke="#0052CD"/>
<path fill-rule="evenodd" clip-rule="evenodd" d="M7.61141 22.1185V19.6943H8.49292V22.1185H11.3578C11.6012 22.1185 11.7986 22.3158 11.7986 22.5592C11.7986 22.8027 11.6012 23 11.3578 23H4.74651C4.50309 23 4.30576 22.8027 4.30576 22.5592C4.30576 22.3158 4.50309 22.1185 4.74651 22.1185H7.61141Z" fill="#0052CD" stroke="#0052CD"/>
<path d="M11.1078 5.34189V12.5867C11.1078 13.5193 10.6819 14.4009 9.95119 14.9805C8.83891 15.8629 7.2654 15.8629 6.15312 14.9805C5.42244 14.4009 4.9965 13.5193 4.9965 12.5867V5.06571C4.9965 4.07135 5.5001 3.14466 6.33443 2.60371C7.25891 2.00432 8.44124 1.97333 9.39584 2.52349L9.52075 2.59548C10.5027 3.1614 11.1078 4.20853 11.1078 5.34189ZM5.58286 1.44452C4.3557 2.24017 3.61499 3.60318 3.61499 5.06571V12.5867C3.61499 13.941 4.23351 15.2212 5.29453 16.0629C6.9097 17.3442 9.19461 17.3442 10.8098 16.0629C11.8708 15.2212 12.4893 13.941 12.4893 12.5867V5.34189C12.4893 3.71458 11.6205 2.21109 10.2106 1.39852L10.0857 1.32653C8.68162 0.517351 6.94261 0.56292 5.58286 1.44452Z" fill="#0052CD" stroke="#0052CD" stroke-width="0.5"/>
</svg>
